<svg width="80" height="80" viewBox="0 0 80 80" fill="none" xmlns="http://www.w3.org/2000/svg">
<circle cx="40" cy="40" r="40" fill="url(#paint0_linear_126_105)"/>
<path fill-rule="evenodd" clip-rule="evenodd" d="M34.2871 20.247C34.039 20.4744 33.6987 21.5358 30.0088 33.5911C27.804 40.7945 26 46.8066 26 46.9513C26 47.1152 26.0981 47.3252 26.26 47.5078L26.5199 47.8012L32.6149 47.8461L38.7101 47.891L35.0329 56.2897C32.2431 62.6622 31.3548 64.7758 31.3511 65.0502C31.3452 65.4831 31.5092 65.7459 31.8819 65.9016C32.5308 66.1726 31.8767 66.837 44.8008 52.7791C51.3922 45.6093 56.834 39.6565 56.8935 39.5504C57.0468 39.2771 57.0329 38.8495 56.8626 38.6045C56.5403 38.1405 56.61 38.1449 49.6524 38.1449C46.0937 38.1449 43.1954 38.1106 43.2118 38.0687C43.2281 38.0268 45.4568 34.2134 48.1645 29.5943C51.957 23.1246 53.0874 21.1289 53.0874 20.9035C53.0874 20.6904 53.005 20.5277 52.7845 20.3054L52.4815 20H43.5191H34.5568L34.2871 20.247ZM50.4741 21.9537C47.969 26.1885 40.8052 38.4805 40.6866 38.7477C40.5354 39.088 40.5313 39.1567 40.6455 39.4322C40.909 40.068 40.4847 40.0312 47.5457 40.0312C51.0429 40.0312 53.8909 40.0646 53.8745 40.1054C53.8308 40.2146 35.4941 60.1399 35.4641 60.1108C35.4501 60.0971 36.7108 57.1805 38.2658 53.6292C40.3447 48.8816 41.0938 47.0808 41.096 46.8264C41.0984 46.5475 41.0429 46.4298 40.81 46.2201L40.521 45.9597H34.3743C30.8316 45.9597 28.2276 45.9258 28.2276 45.8796C28.2276 45.8355 29.8715 40.4359 31.8808 33.8803C33.8901 27.3248 35.5341 21.9443 35.5341 21.9237C35.5341 21.9031 38.9046 21.8863 43.024 21.8863C47.1434 21.8863 50.496 21.9166 50.4741 21.9537Z" fill="white"/>
<defs>
<linearGradient id="paint0_linear_126_105" x1="40" y1="80" x2="40" y2="0" gradientUnits="userSpaceOnUse">
<stop stop-color="#339AF0"/>
<stop offset="1" stop-color="#74C0FC"/>
</linearGradient>
</defs>
</svg>
