<svg width="80" height="80" viewBox="0 0 80 80" fill="none" xmlns="http://www.w3.org/2000/svg">
<circle cx="40" cy="40" r="40" fill="url(#paint0_linear_131_146)"/>
<path fill-rule="evenodd" clip-rule="evenodd" d="M17.3599 21.117C17.2816 21.1757 17.1704 21.3099 17.1129 21.4152C16.9624 21.6912 16.9624 51.6987 17.1129 51.9747C17.3411 52.3928 17.0984 52.3796 24.5631 52.3825L31.624 52.3853L31.6748 52.7557C31.7062 52.9833 31.6847 53.1744 31.6193 53.2516C31.5608 53.3206 30.5926 54.4457 29.4678 55.7518C28.3429 57.058 27.3978 58.2196 27.3676 58.3332C27.3363 58.4501 27.3745 58.6666 27.4556 58.8326C27.625 59.1793 27.5222 59.145 30.4177 59.8198L32.5557 60.3181L33.5009 62.4656C34.0835 63.7892 34.5315 64.6888 34.6685 64.8104C34.9409 65.0521 35.3239 65.0638 35.6096 64.8393C35.7274 64.7467 36.7331 63.605 37.8445 62.3021C38.9559 60.9992 39.9259 59.9332 40 59.9332C40.0741 59.9332 41.0441 60.9992 42.1555 62.3021C43.2669 63.605 44.2726 64.7467 44.3904 64.8393C44.6761 65.0638 45.0591 65.0521 45.3315 64.8104C45.4685 64.6888 45.9165 63.7891 46.4991 62.4656L47.4443 60.3181L49.8069 59.7658C51.1063 59.4622 52.2584 59.1568 52.3672 59.0872C52.6336 58.917 52.7278 58.4111 52.5441 58.1376C52.4391 57.981 49.1443 54.1124 48.3909 53.261C48.3141 53.1742 48.2914 53.001 48.325 52.757L48.376 52.3853L55.4369 52.3825C62.9016 52.3796 62.6589 52.3928 62.8871 51.9747C63.0376 51.6987 63.0376 21.6912 62.8871 21.4152C62.8296 21.3099 62.7184 21.1757 62.6401 21.117C62.4319 20.961 17.5681 20.961 17.3599 21.117ZM61.4648 36.695V50.8951H54.9288H48.3929L48.2883 50.2534C47.8205 47.3843 45.616 44.8343 42.7841 43.8868C40.4134 43.0936 37.8316 43.3508 35.6831 44.5942C34.3099 45.3889 33.1738 46.6045 32.4567 48.0463C32.0355 48.8933 31.6476 50.1409 31.6476 50.6488V50.8951H25.0914H18.5352V36.695V22.4948H40H61.4648V36.695ZM20.3589 24.1964L20.1069 24.4078V26.059V27.7103L20.8479 27.7357L21.5888 27.7612V26.6181V25.4751H22.7563H23.9239V24.73V23.9849H22.2674C20.6461 23.9849 20.6055 23.9894 20.3589 24.1964ZM56.0761 24.73V25.4751H57.2437H58.4112V26.6181V27.7612L59.1521 27.7357L59.8931 27.7103V26.059V24.4078L59.6411 24.1964C59.3945 23.9894 59.3539 23.9849 57.7326 23.9849H56.0761V24.73ZM30.8393 29.9893V30.7344H40H49.1607V29.9893V29.2442H40H30.8393V29.9893ZM26.1691 34.4597V35.2048H40H53.8309V34.4597V33.7147H40H26.1691V34.4597ZM41.4183 45.0731C44.8055 45.7515 47.2418 48.9957 46.8426 52.2965C46.6887 53.5691 46.2601 54.6739 45.5675 55.5827C44.7173 56.6986 43.4558 57.5994 42.1106 58.051C41.4473 58.2737 41.2849 58.2923 40 58.2923C38.7149 58.2923 38.5527 58.2737 37.8894 58.051C36.2227 57.4911 34.6431 56.1871 33.8927 54.7516C32.4103 51.9156 33.0947 48.5896 35.5936 46.4862C36.2248 45.955 37.698 45.2453 38.5181 45.0775C39.3592 44.9054 40.5714 44.9036 41.4183 45.0731ZM20.079 47.3091L20.1069 48.9822L20.3589 49.1936C20.6055 49.4005 20.6462 49.405 22.2674 49.405H23.9239V48.6599V47.9148H22.7563H21.5888V46.7753V45.6358H20.8199H20.0511L20.079 47.3091ZM58.4112 46.7753V47.9148H57.2437H56.0761V48.6599V49.405H57.7326C59.3538 49.405 59.3945 49.4005 59.6411 49.1936L59.8931 48.9822L59.921 47.3091L59.9489 45.6358H59.1801H58.4112V46.7753ZM38.671 46.6019C37.6795 46.8554 36.9917 47.2494 36.2148 48.0086C35.1324 49.0663 34.6563 50.2102 34.666 51.7293C34.6806 54.0334 36.3016 56.0735 38.6048 56.6863C39.202 56.8453 39.4763 56.8693 40.2663 56.8317C41.3607 56.7797 42.0555 56.5762 42.8499 56.0751C44.3944 55.1008 45.323 53.4763 45.334 51.7293C45.3401 50.7827 45.2055 50.1934 44.7857 49.3272C44.3911 48.513 43.3656 47.4737 42.5429 47.0542C41.3522 46.4472 39.9272 46.2808 38.671 46.6019ZM40.7287 48.0037C42.6511 48.357 44.0503 50.2537 43.7667 52.1223C43.6674 52.7763 43.5623 53.0874 43.2838 53.5512C42.9427 54.1192 42.2413 54.7215 41.5468 55.0425C40.9874 55.3012 40.8737 55.3217 40 55.3217C39.1263 55.3217 39.0126 55.3012 38.4532 55.0425C37.491 54.5977 36.6572 53.7228 36.3933 52.8812C35.5189 50.0932 37.8468 47.4742 40.7287 48.0037ZM32.5118 55.3875C33.531 57.3544 35.4523 58.9179 37.5984 59.5268L38.1126 59.6727L36.7528 61.249C36.0049 62.116 35.3641 62.7936 35.3289 62.755C35.2936 62.7164 34.9532 61.9748 34.5724 61.107C34.1915 60.2392 33.8202 59.4389 33.7473 59.3284C33.5532 59.0348 33.231 58.9235 31.2643 58.4706L29.4888 58.0617L29.8755 57.6121C31.3695 55.8749 32.2022 54.9273 32.2351 54.9273C32.2561 54.9273 32.3805 55.1344 32.5118 55.3875ZM49.3266 56.6804C49.9673 57.4276 50.483 58.0477 50.4725 58.0583C50.4621 58.0688 49.6104 58.2731 48.5799 58.5121C47.4767 58.768 46.6108 59.0158 46.4741 59.1147C46.3115 59.2321 46.0118 59.7985 45.4755 61.0012C45.054 61.9464 44.6856 62.7428 44.6568 62.7709C44.6279 62.7991 43.9951 62.1158 43.2503 61.2527L41.8964 59.6831L42.6507 59.4436C44.7443 58.7789 46.491 57.3118 47.4946 55.3752L47.7394 54.9028L47.9505 55.1122C48.0665 55.2275 48.6858 55.9331 49.3266 56.6804Z" fill="white"/>
<defs>
<linearGradient id="paint0_linear_131_146" x1="40" y1="80" x2="40" y2="0" gradientUnits="userSpaceOnUse">
<stop stop-color="#339AF0"/>
<stop offset="1" stop-color="#74C0FC"/>
</linearGradient>
</defs>
</svg>
