<svg width="80" height="80" viewBox="0 0 80 80" fill="none" xmlns="http://www.w3.org/2000/svg">
<circle cx="40" cy="40" r="40" fill="url(#paint0_linear_131_175)"/>
<path fill-rule="evenodd" clip-rule="evenodd" d="M58.171 19.0399C58.0356 19.0555 57.5188 19.1089 57.0225 19.1586C55.1266 19.3484 52.9098 19.8474 50.7884 20.5616C45.7165 22.2693 40.9066 25.3136 37.3068 29.0947L36.6782 29.7549L35.5736 29.832C30.4803 30.1875 25.4624 32.4068 21.8516 35.901C21.2547 36.4786 21.2149 36.5388 21.2149 36.8644C21.2149 37.1279 21.2697 37.2732 21.4421 37.4663L21.6694 37.7208L24.9901 38.2005C26.8165 38.4643 28.3955 38.6921 28.4992 38.7067C28.6728 38.7312 28.6494 38.7762 28.1991 39.2829C27.6448 39.9066 27.5411 40.1978 27.7309 40.5981C27.9048 40.965 39.1524 52.2054 39.4611 52.3208C39.8372 52.4614 40.1309 52.3446 40.7225 51.819L41.2713 51.3314L41.7639 54.766C42.1081 57.1657 42.2978 58.2635 42.3937 58.4095C42.4691 58.5244 42.6464 58.6663 42.7876 58.7249C43.3712 58.9669 43.9364 58.5255 45.4048 56.6807C48.1869 53.1854 49.8233 48.9683 50.166 44.4101L50.2454 43.3542L51.5846 41.988C54.1416 39.3793 56.0178 36.7562 57.6284 33.5383C59.7771 29.2454 60.9974 24.5287 61 20.506C61.0006 19.5916 60.8614 19.2189 60.4625 19.0671C60.2679 18.9931 58.7369 18.9749 58.171 19.0399ZM59.2107 21.4925C58.9802 27.8459 55.579 35.3726 50.6265 40.4892C49.9025 41.2371 40.2002 50.0034 39.8725 50.2058C39.8244 50.2355 37.5405 48.0123 34.7585 45.2276L29.7315 40.1958L34.156 35.2361C36.5895 32.5083 39.02 29.8516 39.5572 29.3323C44.6747 24.3845 51.9217 21.1073 58.4991 20.7664C59.3015 20.7248 59.2408 20.6627 59.2107 21.4925ZM48.0399 26.7511C46.3938 27.1069 45.0706 28.4516 44.7153 30.1297C44.6504 30.4362 44.5973 30.8348 44.5973 31.0154C44.5973 32.5667 45.6209 34.2275 46.9909 34.899C47.5751 35.1854 48.4402 35.4051 48.9832 35.4051C50.5332 35.4051 52.1926 34.3806 52.8635 33.0095C53.1496 32.4247 53.3692 31.5589 53.3692 31.0154C53.3692 29.461 52.3263 27.7719 50.9651 27.1217C49.98 26.6511 49.0485 26.5331 48.0399 26.7511ZM50.1556 28.6641C50.6058 28.8973 51.1001 29.3922 51.3319 29.842C51.6062 30.374 51.6394 31.3589 51.4041 31.9833C50.6324 34.0314 47.6497 34.1636 46.6381 32.1947C46.4183 31.7668 46.3341 30.7791 46.4734 30.2631C46.6667 29.5474 47.451 28.7298 48.1513 28.514C48.6101 28.3726 49.7589 28.4587 50.1556 28.6641ZM34.7363 31.9467C32.9671 33.9913 30.0911 37.1322 29.9882 37.1322C29.7822 37.1322 24.1446 36.3151 24.1098 36.2801C24.0591 36.2294 25.0575 35.4616 25.9351 34.8767C26.8959 34.2363 29.039 33.1584 30.1858 32.7388C31.1917 32.3708 32.9019 31.9283 33.9301 31.7701C35.0917 31.5914 35.0514 31.5825 34.7363 31.9467ZM48.2443 45.9261C47.8099 48.8362 46.7055 51.6836 45.0474 54.1687C44.3709 55.1826 43.7759 55.9634 43.7214 55.9088C43.6697 55.857 42.8668 50.1517 42.8903 50.002C42.9102 49.8747 48.2915 44.9925 48.3488 45.0498C48.3614 45.0624 48.3143 45.4567 48.2443 45.9261ZM26.8367 47.0762C25.8298 47.223 24.893 47.6484 24.0443 48.3445C23.279 48.9721 22.3541 50.6564 21.2622 53.411C20.568 55.1618 19 59.8594 19 60.188C19 60.5299 19.3459 60.923 19.7061 60.9907C19.9285 61.0325 20.3151 60.9402 21.4444 60.5757C27.2718 58.6952 30.7172 57.1495 31.6666 55.9898C33.4938 53.7582 33.4185 50.7336 31.4849 48.6924C30.6535 47.8146 29.5454 47.2497 28.3024 47.0699C27.6576 46.9766 27.5157 46.9772 26.8367 47.0762ZM28.9261 49.0239C29.8252 49.3757 30.6287 50.1778 30.9957 51.09C31.1442 51.4594 31.1777 51.7067 31.1797 52.449C31.1819 53.3321 31.1739 53.3729 30.8785 53.9712C30.3577 55.0256 29.7457 55.4935 27.7006 56.4009C27.1338 56.6523 26.2456 57.0227 25.7267 57.224C24.4444 57.7215 21.2827 58.8209 21.2444 58.7827C21.177 58.7152 22.524 54.9295 23.222 53.2247C23.699 52.0596 24.4323 50.5736 24.7099 50.2093C25.158 49.6213 25.7413 49.207 26.505 48.9342C27.0731 48.7312 28.2935 48.7765 28.9261 49.0239Z" fill="white"/>
<defs>
<linearGradient id="paint0_linear_131_175" x1="40" y1="80" x2="40" y2="0" gradientUnits="userSpaceOnUse">
<stop stop-color="#339AF0"/>
<stop offset="1" stop-color="#74C0FC"/>
</linearGradient>
</defs>
</svg>
