<?xml version="1.0" encoding="UTF-8"?>
<svg id="_Слой_1" data-name="Слой 1" xmlns="http://www.w3.org/2000/svg" viewBox="0 0 240 126.06">
  <defs>
    <style>
      .cls-1 {
        fill: #232c36;
      }
    </style>
  </defs>
  <g>
    <path class="cls-1" d="M141.75,81.88c-5.71,0-11.41,0-17.12,.01-1.86-4.65-3.73-9.3-5.59-13.95-1.84,4.65-3.69,9.29-5.53,13.94-1.75,4.33-3.5,8.65-5.25,12.98h-19.29L118.45,28.03h18.61l29.6,66.83h-19.67l-5.25-12.98Zm-5.53-13.94l-8.59-21.39-8.59,21.39h17.18Z"/>
    <path class="cls-1" d="M174.3,28.03h18.63v40.32c9.45-13.44,18.89-26.88,28.34-40.32h17V94.86h-18.61V55.72l-27.5,39.14h-17.85c6.21-8.84,12.42-17.67,18.63-26.51h-18.63V28.03Z"/>
    <path class="cls-1" d="M219.65,18.1h-26.72V0c8.91,6.03,17.82,12.06,26.72,18.1Z"/>
    <g>
      <path class="cls-1" d="M82.18,94.63h-17.42c0-12.34,0-24.68,.01-37.02-1.78,2.94-3.55,5.89-5.33,8.83h-17.37c7.56-12.62,15.12-25.24,22.68-37.86h17.42V94.63Z"/>
      <path class="cls-1" d="M1.75,94.86H19.17c0-12.34,0-24.68-.01-37.02,6.01,10,12.03,20,18.04,29.99h17.61c-11.88-19.67-23.75-39.35-35.63-59.02H1.75V94.86Z"/>
    </g>
  </g>
  <g>
    <path class="cls-1" d="M1.82,122.06v-10.8h1.13v9.82h6.53v-9.82h1.13v10.8H1.82Zm9.43,2.53v-2.84l.29,.31h-2.07v-.99h2.84v3.52h-1.06Z"/>
    <path class="cls-1" d="M15.74,122.06v-10.8h1.13v8.95l6.91-8.95h1.03v10.8h-1.13v-8.94l-6.91,8.94h-1.03Z"/>
    <path class="cls-1" d="M34.72,121.32c-1.29,0-2.39-.18-3.3-.55-.92-.36-1.62-.9-2.11-1.6-.49-.7-.74-1.54-.74-2.53s.25-1.83,.74-2.52c.49-.69,1.2-1.23,2.11-1.6,.92-.37,2.02-.55,3.3-.55h.28c1.3,0,2.4,.18,3.32,.55,.92,.37,1.62,.9,2.11,1.6,.49,.69,.74,1.54,.74,2.52s-.24,1.83-.73,2.53c-.49,.7-1.19,1.23-2.11,1.6-.92,.37-2.01,.55-3.29,.55h-.32Zm.12-.89h.11c1.08-.01,2-.16,2.77-.46,.77-.29,1.35-.72,1.75-1.28,.4-.56,.6-1.24,.6-2.04s-.2-1.5-.61-2.05c-.41-.56-.99-.98-1.74-1.27-.76-.29-1.67-.44-2.74-.44h-.14c-1.09,0-2.02,.14-2.79,.43-.77,.29-1.36,.71-1.77,1.27-.41,.56-.62,1.25-.62,2.06s.21,1.51,.63,2.08c.42,.56,1.01,.99,1.79,1.27,.78,.29,1.7,.43,2.77,.43Zm-.51,2.01v-11.54h1.06v11.54h-1.06Z"/>
    <path class="cls-1" d="M44.93,122.06v-10.8h4.04c.92,0,1.7,.15,2.36,.44,.66,.29,1.17,.71,1.52,1.27s.53,1.22,.53,2-.18,1.42-.53,1.97c-.35,.55-.86,.98-1.52,1.27-.66,.3-1.45,.45-2.36,.45h-3.41l.51-.54v3.95h-1.14Zm1.14-3.86l-.51-.56h3.38c1.08,0,1.9-.23,2.46-.7,.56-.47,.84-1.13,.84-1.98s-.28-1.53-.84-2.01c-.56-.47-1.38-.71-2.46-.71h-3.38l.51-.54v6.5Z"/>
    <path class="cls-1" d="M61.76,122.16c-.81,0-1.57-.14-2.26-.41-.69-.27-1.3-.66-1.81-1.16-.51-.5-.91-1.08-1.19-1.74-.28-.66-.42-1.39-.42-2.18s.14-1.52,.42-2.18c.28-.66,.68-1.25,1.19-1.74,.51-.5,1.11-.88,1.8-1.16,.69-.27,1.45-.41,2.27-.41s1.56,.14,2.25,.41c.69,.27,1.29,.66,1.8,1.15s.91,1.08,1.19,1.74c.28,.67,.42,1.4,.42,2.19s-.14,1.52-.42,2.19c-.28,.67-.68,1.25-1.19,1.74-.51,.49-1.11,.88-1.8,1.15-.69,.27-1.44,.41-2.25,.41Zm0-1.02c.65,0,1.25-.11,1.8-.33,.55-.22,1.03-.54,1.44-.94,.41-.41,.72-.88,.95-1.42,.23-.54,.34-1.13,.34-1.78s-.11-1.24-.34-1.78c-.23-.54-.54-1.01-.95-1.42-.41-.41-.89-.72-1.44-.94-.55-.22-1.15-.33-1.8-.33s-1.25,.11-1.81,.33c-.56,.22-1.04,.53-1.44,.94-.41,.41-.73,.88-.96,1.42-.23,.54-.35,1.13-.35,1.78s.12,1.23,.35,1.77c.23,.55,.55,1.02,.96,1.43,.41,.41,.89,.72,1.44,.94,.56,.22,1.16,.33,1.81,.33Z"/>
    <path class="cls-1" d="M71.32,122.06v-10.8h4.49c1.14,0,2.04,.23,2.69,.7,.65,.47,.98,1.15,.98,2.06s-.31,1.57-.94,2.03c-.63,.46-1.45,.69-2.47,.69l.26-.39c1.2,0,2.12,.24,2.75,.71,.63,.47,.94,1.17,.94,2.08s-.33,1.64-.98,2.15c-.65,.51-1.63,.76-2.94,.76h-4.78Zm1.13-5.91h3.3c.83,0,1.47-.17,1.92-.5,.45-.33,.67-.83,.67-1.49s-.22-1.16-.67-1.49c-.45-.33-1.09-.5-1.92-.5h-3.3v3.98Zm0,5h3.66c.92,0,1.61-.17,2.08-.51,.47-.34,.71-.86,.71-1.57s-.24-1.21-.71-1.54c-.47-.33-1.17-.49-2.08-.49h-3.66v4.12Z"/>
    <path class="cls-1" d="M88.77,122.16c-.81,0-1.57-.14-2.26-.41-.69-.27-1.3-.66-1.81-1.16-.51-.5-.91-1.08-1.19-1.74-.28-.66-.42-1.39-.42-2.18s.14-1.52,.42-2.18c.28-.66,.68-1.25,1.19-1.74,.51-.5,1.11-.88,1.8-1.16,.69-.27,1.45-.41,2.27-.41s1.56,.14,2.25,.41c.69,.27,1.29,.66,1.8,1.15s.91,1.08,1.19,1.74c.28,.67,.42,1.4,.42,2.19s-.14,1.52-.42,2.19c-.28,.67-.68,1.25-1.19,1.74-.51,.49-1.11,.88-1.8,1.15-.69,.27-1.44,.41-2.25,.41Zm0-1.02c.65,0,1.25-.11,1.8-.33,.55-.22,1.03-.54,1.44-.94,.41-.41,.72-.88,.95-1.42,.23-.54,.34-1.13,.34-1.78s-.11-1.24-.34-1.78c-.23-.54-.54-1.01-.95-1.42-.41-.41-.89-.72-1.44-.94-.55-.22-1.15-.33-1.8-.33s-1.25,.11-1.81,.33c-.56,.22-1.04,.53-1.44,.94-.41,.41-.73,.88-.96,1.42-.23,.54-.35,1.13-.35,1.78s.12,1.23,.35,1.77c.23,.55,.55,1.02,.96,1.43,.41,.41,.89,.72,1.44,.94,.56,.22,1.16,.33,1.81,.33Z"/>
    <path class="cls-1" d="M98.32,122.06v-10.8h1.13v8.95l6.91-8.95h1.03v10.8h-1.13v-8.94l-6.91,8.94h-1.03Zm4.51-11.59c-.77,0-1.38-.17-1.83-.53-.45-.35-.68-.84-.69-1.47h.85c.01,.41,.17,.74,.47,.97,.3,.24,.7,.35,1.2,.35s.89-.12,1.2-.35c.3-.24,.46-.56,.47-.97h.85c-.01,.63-.24,1.12-.69,1.47-.45,.35-1.06,.53-1.82,.53Z"/>
    <path class="cls-1" d="M122.6,122.06v-10.8h1.13v8.95l6.91-8.95h1.03v10.8h-1.13v-8.94l-6.92,8.94h-1.03Z"/>
    <path class="cls-1" d="M137.62,122.06h-1.14v-10.8h1.14v10.8Zm6.87-4.99h-6.99v-1h6.99v1Zm-.11-5.82h1.13v10.8h-1.13v-10.8Z"/>
    <path class="cls-1" d="M152.45,122.06v-10.12l.31,.31h-4.11v-.99h8.72v.99h-4.09l.29-.31v10.12h-1.13Z"/>
    <path class="cls-1" d="M161.68,121.08h6.5v.99h-7.64v-10.8h7.41v.99h-6.27v8.83Zm-.12-4.99h5.71v.97h-5.71v-.97Z"/>
    <path class="cls-1" d="M171.86,122.06v-10.8h6.87v.99h-6.05l.29-.29v10.11s-1.11,0-1.11,0Z"/>
    <path class="cls-1" d="M181.85,122.06v-10.8h4.04c.92,0,1.7,.15,2.36,.44s1.17,.71,1.52,1.27c.35,.55,.53,1.22,.53,2s-.18,1.42-.53,1.97c-.36,.55-.86,.98-1.52,1.27-.66,.3-1.45,.45-2.36,.45h-3.41l.51-.54v3.95h-1.14Zm1.14-3.86l-.51-.56h3.38c1.08,0,1.9-.23,2.46-.7,.56-.47,.84-1.13,.84-1.98s-.28-1.53-.84-2.01-1.38-.71-2.46-.71h-3.38l.51-.54v6.5Z"/>
    <path class="cls-1" d="M191.66,122.06l4.94-10.8h1.13l4.94,10.8h-1.2l-4.54-10.14h.46l-4.54,10.14h-1.19Zm1.94-2.89l.34-.93h6.28l.34,.93h-6.96Z"/>
    <path class="cls-1" d="M207.5,122.06v-10.12l.31,.31h-4.11v-.99h8.72v.99h-4.09l.29-.31v10.12h-1.13Z"/>
    <path class="cls-1" d="M220.17,122.16c-.81,0-1.57-.14-2.26-.41s-1.3-.66-1.81-1.16c-.51-.5-.91-1.08-1.19-1.74s-.42-1.39-.42-2.18,.14-1.52,.42-2.18c.28-.66,.68-1.25,1.19-1.74,.51-.5,1.11-.88,1.8-1.16s1.45-.41,2.27-.41,1.56,.14,2.25,.41,1.29,.66,1.8,1.15c.51,.49,.91,1.08,1.19,1.74,.28,.67,.42,1.4,.42,2.19s-.14,1.52-.42,2.19c-.28,.67-.68,1.25-1.19,1.74-.51,.49-1.11,.88-1.8,1.15s-1.44,.41-2.25,.41Zm0-1.02c.65,0,1.25-.11,1.8-.33,.55-.22,1.03-.54,1.43-.94s.72-.88,.95-1.42,.34-1.13,.34-1.78-.11-1.24-.34-1.78c-.23-.54-.54-1.01-.95-1.42-.41-.41-.88-.72-1.43-.94-.55-.22-1.15-.33-1.8-.33s-1.25,.11-1.81,.33c-.55,.22-1.04,.53-1.44,.94-.41,.41-.73,.88-.96,1.42-.23,.54-.35,1.13-.35,1.78s.12,1.23,.35,1.77c.23,.55,.55,1.02,.96,1.43s.89,.72,1.44,.94c.56,.22,1.16,.33,1.81,.33Z"/>
    <path class="cls-1" d="M229.72,122.06v-10.8h4.04c.92,0,1.7,.15,2.36,.44s1.17,.71,1.52,1.27c.35,.55,.53,1.22,.53,2s-.18,1.42-.53,1.97c-.36,.55-.86,.98-1.52,1.27-.66,.3-1.45,.45-2.36,.45h-3.41l.51-.54v3.95h-1.14Zm1.14-3.86l-.51-.56h3.38c1.08,0,1.9-.23,2.46-.7,.56-.47,.84-1.13,.84-1.98s-.28-1.53-.84-2.01-1.38-.71-2.46-.71h-3.38l.51-.54v6.5Z"/>
  </g>
</svg>