<svg xmlns="http://www.w3.org/2000/svg" width="1201" height="410" viewBox="0 0 356.579 121.687" xmlns:xlink="http://www.w3.org/1999/xlink" shape-rendering="geometricPrecision" text-rendering="geometricPrecision" image-rendering="optimizeQuality" fill-rule="evenodd" clip-rule="evenodd"><defs><linearGradient id="a" gradientUnits="userSpaceOnUse" x1="69.086" y1="17.207" x2="26.808" y2="80.063"><stop offset="0" stop-color="#02ab4e"/><stop offset="1" stop-color="#00833d"/></linearGradient><linearGradient id="b" gradientUnits="userSpaceOnUse" xlink:href="#a" x1="26.808" y1="80.063" x2="102.382" y2="85.249"/><linearGradient id="c" gradientUnits="userSpaceOnUse" xlink:href="#a" x1="102.382" y1="85.249" x2="69.086" y2="17.207"/></defs><path d="M303.935 104.488V62.599l33.186 41.889h19.458l-35.712-43.647 35.712-43.647h-19.458l-33.186 41.888V17.194h-15.343v87.294zm-84.173 0c1.372 0 4.491.128 9.477.249 5.111.124 9.478.374 13.219.374 21.45 0 33.67-10.478 33.67-28.56 0-16.086-11.223-26.312-29.306-26.312-4.364 0-8.355.25-11.72.748V31.535h35.663V17.194h-51.003v87.294zm25.813-39.908c10.351 0 15.338 5.113 15.338 13.093 0 8.605-5.361 12.97-16.086 12.97-1.871 0-5.112-.124-9.725-.499V65.328c3.865-.498 7.356-.748 10.473-.748zm-94.094 39.908c5.613.373 13.72.623 24.321.623 19.456 0 32.428-8.983 32.428-26.319 0-11.1-6.236-17.96-15.341-20.33v-.249c8.357-3.867 12.472-10.477 12.472-19.831 0-12.971-8.855-21.812-28.686-21.812-8.605 0-17.087.249-25.194.624v87.294zm24.945-73.34c8.481 0 13.72 3.866 13.72 10.85 0 7.608-5.364 11.599-12.972 11.599h-10.352V31.522c2.744-.249 5.987-.374 9.604-.374zm1.247 35.795c9.604 0 15.216 3.742 15.216 11.1 0 8.357-5.363 12.726-15.964 12.726-3.243 0-6.61-.25-10.103-.624V66.943h10.851z" fill="#151d27" fill-rule="nonzero"/><path d="M8.577 82.899A77.507 77.507 0 010 60.877c23.772 31.26 66.693 41.74 102.382 24.372a79.431 79.431 0 01-7.234 33.979C62.241 127.747 26.4 113.77 8.577 82.899z" fill="url(#b)"/><path d="M75.745 0a77.503 77.503 0 0123.359 3.583C60.146 8.54 29.61 40.471 26.808 80.063A79.42 79.42 0 01.997 56.808C10.072 24.05 40.098 0 75.745 0z" fill="url(#a)"/><path d="M69.086 17.207A79.399 79.399 0 01102.13 6.482c23.832 24.238 29.647 62.266 11.824 93.137a77.53 77.53 0 01-14.784 18.439c15.187-36.217 2.802-78.628-30.084-100.851z" fill="url(#c)"/></svg>