<?xml version="1.0" encoding="UTF-8"?> <svg xmlns="http://www.w3.org/2000/svg" width="417" height="60" viewBox="0 0 417 60" fill="none"> <path d="M111.647 1.84389C111.647 1.15483 112.253 0.548026 112.945 0.548026H122.286C122.979 0.548026 123.584 1.15483 123.584 1.84389V58.1558C123.584 58.848 122.979 59.4517 122.286 59.4517H113.638C112.596 59.4517 111.992 59.2798 111.214 58.1558L82.9297 21.3063V58.1558C82.9297 58.848 82.3254 59.4517 81.6328 59.4517H72.375C71.5973 59.4517 70.9932 58.848 70.9932 58.1558V1.84389C70.9932 1.15483 71.5973 0.548026 72.375 0.548026H81.027C82.065 0.548026 82.5817 0.893359 83.363 1.93189L111.647 38.7787V1.84389Z" fill="#395B72"></path> <path d="M195.654 0.548026C196.436 0.548026 197.04 1.15483 197.04 1.84389V10.3215C197.04 11.0131 196.436 11.6183 195.654 11.6183H165.034V24.3344H191.16C191.85 24.3344 192.458 24.9396 192.458 25.6319V34.0226C192.458 34.8011 191.85 35.4063 191.16 35.4063H165.034V48.4668H195.654C196.436 48.4668 197.04 48.9866 197.04 49.7652V58.1558C197.04 58.848 196.436 59.4517 195.654 59.4517H153.964C153.186 59.4517 152.581 58.848 152.581 58.1558V1.84389C152.581 1.15483 153.186 0.548026 153.964 0.548026H195.654Z" fill="#395B72"></path> <path d="M235.805 11.1002V28.4866H247.914C251.116 28.4866 253.71 28.2251 255.528 27.0158C257.604 25.7199 259.074 23.297 259.074 19.836C259.074 16.3772 257.776 14.1278 255.786 12.7439C253.882 11.5335 251.548 11.1002 248.956 11.1002H235.805ZM259.852 37.3095L272.653 57.2037C273.258 58.2412 273.346 59.4517 271.876 59.4517H261.065C259.852 59.4517 259.162 59.2798 258.553 58.1558L246.964 39.0396H235.805V58.1558C235.805 58.848 235.288 59.4517 234.508 59.4517H224.733C223.956 59.4517 223.352 58.848 223.352 58.1558V1.84389C223.352 1.15483 223.956 0.548026 224.733 0.548026H249.993C255.701 0.548026 260.889 1.58656 264.87 4.52669C269.192 7.72669 271.704 13.2636 271.704 19.6652C271.704 25.285 269.625 30.3027 265.13 34.1095C263.4 35.5787 261.669 36.5303 259.852 37.3095" fill="#395B72"></path> <path d="M328.983 13.1762C327.079 11.9652 324.916 11.4454 322.409 11.4454H310.644V30.8226H322.148C324.572 30.8226 326.995 30.4762 328.809 29.2668C331.233 27.7934 332.703 25.1131 332.703 21.1344C332.703 17.2423 331.233 14.6464 328.983 13.1762V13.1762ZM324.052 0.548026C328.983 0.548026 333.912 1.49856 338.151 4.95843C342.563 8.59336 345.329 14.2147 345.329 21.1344C345.329 28.2251 342.304 34.1095 337.547 37.7412C333.393 40.9428 328.723 41.7226 324.052 41.7226H310.644V58.1558C310.644 58.848 310.128 59.4517 309.347 59.4517H299.573C298.796 59.4517 298.189 58.848 298.189 58.1558V1.84389C298.189 1.15483 298.796 0.548026 299.573 0.548026H324.052Z" fill="#395B72"></path> <path d="M389.204 15.4267L381.505 37.5694H396.731L389.204 15.4267ZM374.844 57.9824C374.5 59.0199 373.806 59.4517 372.685 59.4517H362.994C362.13 59.4517 361.785 59.0199 361.785 58.4147C361.785 58.1558 361.869 57.8959 361.958 57.5506L382.111 1.67202C382.371 0.634425 383.064 0.288159 384.188 0.288159H394.48C395.605 0.288159 396.298 0.634425 396.554 1.67202L416.452 57.5506C416.538 57.8959 416.624 58.1558 416.624 58.4147C416.624 59.0199 416.279 59.4517 415.413 59.4517H405.467C404.253 59.4517 403.565 59.0199 403.304 57.9824L399.754 47.5157H378.393L374.844 57.9824" fill="#395B72"></path> <path d="M64.8447 54.2054C64.8447 57.1028 62.4957 59.4507 59.5988 59.4507C56.7015 59.4507 54.3525 57.1028 54.3525 54.2054C54.3525 51.308 56.7015 48.9585 59.5988 48.9585C62.4957 48.9585 64.8447 51.308 64.8447 54.2054" fill="#395B72"></path> <path d="M47.6694 54.2371C47.6694 56.7548 45.6287 58.7944 43.112 58.7944C40.5948 58.7944 38.5547 56.7548 38.5547 54.2371C38.5547 51.7215 40.5948 49.6798 43.112 49.6798C45.6287 49.6798 47.6694 51.7215 47.6694 54.2371Z" fill="#395B72"></path> <path d="M32.2613 54.2704C32.2613 56.4064 30.5296 58.1387 28.3931 58.1387C26.2561 58.1387 24.5244 56.4064 24.5244 54.2704C24.5244 52.1335 26.2561 50.4012 28.3931 50.4012C30.5296 50.4012 32.2613 52.1335 32.2613 54.2704" fill="#395B72"></path> <path d="M18.6227 54.3026C18.6227 56.0584 17.1992 57.4839 15.4429 57.4839C13.6863 57.4839 12.2617 56.0584 12.2617 54.3026C12.2617 52.5464 13.6863 51.1224 15.4429 51.1224C17.1992 51.1224 18.6227 52.5464 18.6227 54.3026Z" fill="#395B72"></path> <path d="M4.98281 54.336C4.98281 55.712 3.86823 56.8276 2.49219 56.8276C1.11563 56.8276 0 55.712 0 54.336C0 52.9599 1.11563 51.8438 2.49219 51.8438C3.86823 51.8438 4.98281 52.9599 4.98281 54.336Z" fill="#395B72"></path> <path d="M64.8447 30.6C64.8447 33.4968 62.4957 35.8452 59.5988 35.8452C56.7015 35.8452 54.3525 33.4968 54.3525 30.6C54.3525 27.7025 56.7015 25.3531 59.5988 25.3531C62.4957 25.3531 64.8447 27.7025 64.8447 30.6Z" fill="#395B72"></path> <path d="M47.6694 30.6321C47.6694 33.1493 45.6287 35.1895 43.112 35.1895C40.5948 35.1895 38.5547 33.1493 38.5547 30.6321C38.5547 28.1149 40.5948 26.0748 43.112 26.0748C45.6287 26.0748 47.6694 28.1149 47.6694 30.6321Z" fill="#395B72"></path> <path d="M32.2613 30.6654C32.2613 32.8013 30.5296 34.5337 28.3931 34.5337C26.2561 34.5337 24.5244 32.8013 24.5244 30.6654C24.5244 28.528 26.2561 26.7961 28.3931 26.7961C30.5296 26.7961 32.2613 28.528 32.2613 30.6654Z" fill="#395B72"></path> <path d="M18.6227 30.6972C18.6227 32.4534 17.1992 33.8789 15.4429 33.8789C13.6863 33.8789 12.2617 32.4534 12.2617 30.6972C12.2617 28.9414 13.6863 27.5174 15.4429 27.5174C17.1992 27.5174 18.6227 28.9414 18.6227 30.6972" fill="#395B72"></path> <path d="M4.98281 30.7293C4.98281 32.1064 3.86823 33.2227 2.49219 33.2227C1.11563 33.2227 0 32.1064 0 30.7293C0 29.3549 1.11563 28.2388 2.49219 28.2388C3.86823 28.2388 4.98281 29.3549 4.98281 30.7293Z" fill="#395B72"></path> <path d="M64.8447 5.51727C64.8447 8.41474 62.4957 10.7637 59.5988 10.7637C56.7015 10.7637 54.3525 8.41474 54.3525 5.51727C54.3525 2.61994 56.7015 0.272071 59.5988 0.272071C62.4957 0.272071 64.8447 2.61994 64.8447 5.51727Z" fill="#395B72"></path> <path d="M47.6694 5.55058C47.6694 8.06684 45.6287 10.1079 43.112 10.1079C40.5948 10.1079 38.5547 8.06684 38.5547 5.55058C38.5547 3.03351 40.5948 0.993376 43.112 0.993376C45.6287 0.993376 47.6694 3.03351 47.6694 5.55058Z" fill="#395B72"></path> <path d="M32.2613 5.58393C32.2613 7.72153 30.5296 9.45166 28.3931 9.45166C26.2561 9.45166 24.5244 7.72153 24.5244 5.58393C24.5244 3.44646 26.2561 1.71473 28.3931 1.71473C30.5296 1.71473 32.2613 3.44646 32.2613 5.58393Z" fill="#395B72"></path> <path d="M18.6227 5.61576C18.6227 7.37296 17.1992 8.7959 15.4429 8.7959C13.6863 8.7959 12.2617 7.37296 12.2617 5.61576C12.2617 3.86003 13.6863 2.43603 15.4429 2.43603C17.1992 2.43603 18.6227 3.86003 18.6227 5.61576Z" fill="#395B72"></path> <path d="M4.98281 5.64898C4.98281 7.02498 3.86823 8.14111 2.49219 8.14111C1.11563 8.14111 0 7.02498 0 5.64898C0 4.27285 1.11563 3.15725 2.49219 3.15725C3.86823 3.15725 4.98281 4.27285 4.98281 5.64898Z" fill="#395B72"></path> </svg> 