<svg width="190" height="25" viewBox="0 0 190 25" fill="none" xmlns="http://www.w3.org/2000/svg">
<path d="M1.232 25C0.8 25 0.584 24.856 0.584 24.568C0.584 24.424 0.62 24.244 0.692 24.028L10.808 1.384C11.096 0.759999 11.552 0.447999 12.176 0.447999H43.424C45.152 0.447999 46.424 0.795998 47.24 1.492C48.08 2.164 48.5 3.1 48.5 4.3C48.5 5.428 48.284 6.388 47.852 7.18C47.444 7.972 46.94 8.644 46.34 9.196C45.764 9.724 45.152 10.156 44.504 10.492C43.88 10.804 43.352 11.056 42.92 11.248C43.376 11.44 43.784 11.872 44.144 12.544C44.504 13.216 44.684 14.056 44.684 15.064C44.684 16.144 44.384 17.272 43.784 18.448C43.184 19.624 42.32 20.704 41.192 21.688C40.088 22.648 38.744 23.44 37.16 24.064C35.6 24.688 33.836 25 31.868 25H1.232ZM22.364 13.732C21.956 13.732 21.752 13.588 21.752 13.3C21.752 13.156 21.788 12.988 21.86 12.796L22.904 10.456C23.192 9.832 23.648 9.52 24.272 9.52H30.104C30.704 9.52 31.28 9.412 31.832 9.196C32.384 8.98 32.864 8.704 33.272 8.368C33.68 8.032 34.004 7.672 34.244 7.288C34.508 6.88 34.64 6.496 34.64 6.136C34.64 5.704 34.46 5.356 34.1 5.092C33.74 4.804 33.128 4.66 32.264 4.66H23.228L16.064 20.752H24.488C25.76 20.752 26.78 20.548 27.548 20.14C28.34 19.732 28.94 19.252 29.348 18.7C29.78 18.148 30.056 17.596 30.176 17.044C30.32 16.492 30.392 16.06 30.392 15.748C30.392 14.404 29.468 13.732 27.62 13.732H22.364ZM74.4628 25C73.7188 25 73.2028 24.76 72.9148 24.28L65.4268 9.844L49.5508 20.752H65.8948C66.3268 20.752 66.5428 20.908 66.5428 21.22C66.5428 21.388 66.4948 21.556 66.3988 21.724L65.3908 24.028C65.1028 24.676 64.6468 25 64.0228 25H40.0108C39.6988 25 39.5428 24.856 39.5428 24.568C39.5428 24.328 39.7348 24.076 40.1188 23.812L72.8068 1.132C73.4788 0.675998 74.0908 0.447999 74.6428 0.447999H76.9828C77.3188 0.447999 77.5828 0.507998 77.7748 0.627998C77.9908 0.747998 78.1588 0.915998 78.2788 1.132L90.4468 23.74C90.4948 23.932 90.5188 24.076 90.5188 24.172C90.5188 24.388 90.4228 24.58 90.2308 24.748C90.0628 24.916 89.7748 25 89.3668 25H74.4628ZM101.068 25C97.9959 25 95.7639 24.508 94.3719 23.524C93.0039 22.516 92.3199 21.112 92.3199 19.312C92.3199 18.52 92.4399 17.656 92.6799 16.72C92.9439 15.784 93.3159 14.776 93.7959 13.696L99.3039 1.384C99.5919 0.759999 100.048 0.447999 100.672 0.447999H114.1C114.556 0.447999 114.784 0.603999 114.784 0.915999C114.784 1.06 114.736 1.216 114.64 1.384L109.168 13.696C108.832 14.488 108.568 15.22 108.376 15.892C108.184 16.564 108.088 17.176 108.088 17.728C108.088 18.712 108.388 19.468 108.988 19.996C109.612 20.5 110.584 20.752 111.904 20.752H118.096C120.16 20.752 121.948 20.128 123.46 18.88C124.972 17.632 126.232 15.904 127.24 13.696L132.712 1.384C133 0.759999 133.456 0.447999 134.08 0.447999H138.436C138.868 0.447999 139.084 0.603999 139.084 0.915999C139.084 1.06 139.048 1.216 138.976 1.384L133.468 13.696C132.772 15.28 131.872 16.756 130.768 18.124C129.664 19.492 128.38 20.692 126.916 21.724C125.452 22.732 123.82 23.536 122.02 24.136C120.22 24.712 118.276 25 116.188 25H101.068ZM166.245 25C165.789 25 165.561 24.856 165.561 24.568C165.561 24.424 165.597 24.244 165.669 24.028L169.773 14.92L155.553 24.028C155.025 24.364 154.533 24.616 154.077 24.784C153.645 24.928 153.249 25 152.889 25H150.801C150.441 25 150.081 24.928 149.721 24.784C149.385 24.616 149.085 24.364 148.821 24.028L141.513 14.92L137.445 24.028C137.157 24.676 136.689 25 136.041 25H132.693C132.237 25 132.009 24.856 132.009 24.568C132.009 24.4 132.057 24.22 132.153 24.028L142.233 1.384C142.521 0.759999 142.989 0.447999 143.637 0.447999H146.481C147.297 0.447999 147.921 0.759999 148.353 1.384L158.433 16.648L183.273 1.384C184.329 0.759999 185.313 0.447999 186.225 0.447999H189.105C189.537 0.447999 189.753 0.603999 189.753 0.915999C189.753 0.987999 189.741 1.06 189.717 1.132C189.717 1.204 189.693 1.288 189.645 1.384L179.529 24.028C179.241 24.676 178.785 25 178.161 25H166.245Z" fill="white"/>
</svg>
