<svg width="180" height="55" viewBox="0 0 180 55" fill="none" xmlns="http://www.w3.org/2000/svg">
<path d="M1.28137 23.9033C0.89372 23.9033 0.724121 23.7791 0.724121 23.5057C0.724121 23.3815 0.748349 23.2075 0.821035 23.0087L9.68863 2.65573C9.93092 2.08415 10.3428 1.81079 10.9001 1.81079H38.2782C39.8045 1.81079 40.919 2.109 41.6459 2.73028C42.3728 3.35155 42.7362 4.19649 42.7362 5.26508C42.7362 6.28397 42.5424 7.15376 42.1789 7.84959C41.8155 8.57027 41.3794 9.16669 40.8464 9.63886C40.3376 10.1359 39.8045 10.5086 39.2473 10.8069C38.69 11.1051 38.2297 11.3287 37.842 11.5027C38.2297 11.6766 38.5931 12.0743 38.9081 12.6707C39.2231 13.2671 39.3927 14.0375 39.3927 14.9321C39.3927 15.9013 39.1261 16.9202 38.5931 17.9639C38.0601 19.0325 37.309 19.9769 36.3399 20.8715C35.3707 21.7413 34.1836 22.462 32.8025 23.0336C31.4215 23.6051 29.8709 23.8785 28.1507 23.8785H1.28137V23.9033ZM19.8161 13.7641C19.4527 13.7641 19.2831 13.6399 19.2831 13.3665C19.2831 13.2423 19.3073 13.0932 19.38 12.9192L20.3007 10.8069C20.543 10.2353 20.9548 9.96192 21.5121 9.96192H26.6243C27.1573 9.96192 27.6661 9.86252 28.1507 9.66371C28.6352 9.4649 29.0471 9.21639 29.4106 8.91818C29.774 8.61997 30.0647 8.29691 30.2828 7.92414C30.5008 7.57623 30.622 7.22831 30.622 6.90525C30.622 6.50763 30.4524 6.20942 30.1374 5.96091C29.8224 5.7124 29.2894 5.58814 28.5383 5.58814H20.5914L14.292 20.0763H21.6817C22.7962 20.0763 23.6927 19.9023 24.371 19.5296C25.0494 19.1568 25.5825 18.7343 25.9459 18.2373C26.3093 17.7403 26.5516 17.2433 26.6727 16.7462C26.7939 16.2492 26.8423 15.8516 26.8423 15.5783C26.8423 14.3606 26.0428 13.7641 24.4195 13.7641H19.8161Z" fill="black"/>
<path d="M72.4075 23.7425C71.7047 23.7425 71.2101 23.5022 70.9497 23.0481L63.8951 9.08038L48.9267 19.6296H64.3116C64.7281 19.6296 64.9103 19.7899 64.9103 20.0837C64.9103 20.2439 64.8583 20.4041 64.7802 20.5644L63.843 22.7811C63.5827 23.3953 63.1401 23.7158 62.5414 23.7158H39.9196C39.6332 23.7158 39.4771 23.5823 39.4771 23.2885C39.4771 23.0481 39.6593 22.8078 40.0237 22.5674L70.8716 0.667675C71.4964 0.213656 72.0691 0 72.5898 0H74.8025C75.1149 0 75.3752 0.053414 75.5574 0.186949C75.7396 0.320484 75.8958 0.454019 76.026 0.667675L87.4801 22.514C87.5321 22.7009 87.5582 22.8345 87.5582 22.9413C87.5582 23.155 87.4801 23.3419 87.2978 23.5022C87.1156 23.6624 86.8553 23.7425 86.4648 23.7425H72.4075Z" fill="black"/>
<path d="M100.94 23.9033C98.1875 23.9033 96.1787 23.4424 94.9387 22.5205C93.6986 21.5986 93.0786 20.2926 93.0786 18.628C93.0786 17.8854 93.2026 17.0915 93.4258 16.2209C93.649 15.3502 93.9714 14.4283 94.4178 13.4296L99.3531 2.00832C99.6012 1.41933 100.023 1.13764 100.593 1.13764H112.646C113.068 1.13764 113.266 1.29129 113.266 1.57298C113.266 1.70102 113.217 1.85467 113.142 2.00832L108.232 13.4296C107.934 14.1722 107.686 14.838 107.513 15.4526C107.339 16.0672 107.265 16.6306 107.265 17.1428C107.265 18.0647 107.537 18.7561 108.083 19.217C108.629 19.7036 109.497 19.9341 110.687 19.9341H116.242C118.102 19.9341 119.69 19.3451 121.054 18.1927C122.418 17.0403 123.534 15.427 124.451 13.3784L129.362 1.9571C129.61 1.36812 130.031 1.08643 130.602 1.08643H134.52C134.917 1.08643 135.091 1.24007 135.091 1.52176C135.091 1.64981 135.066 1.80346 134.991 1.9571L130.056 13.3784C129.436 14.838 128.618 16.2209 127.626 17.4757C126.634 18.7305 125.493 19.8572 124.178 20.8047C122.864 21.7522 121.401 22.4949 119.789 23.0326C118.177 23.5704 116.441 23.8521 114.556 23.8521H100.94V23.9033Z" fill="black"/>
<path d="M159.059 23.9033C158.641 23.9033 158.444 23.7751 158.444 23.4931C158.444 23.3649 158.469 23.1855 158.543 22.9804L162.209 14.5202L149.536 22.9804C149.069 23.288 148.626 23.5188 148.232 23.6726C147.839 23.8264 147.469 23.8777 147.15 23.8777H145.279C144.96 23.8777 144.64 23.8008 144.344 23.6726C144.024 23.5188 143.754 23.288 143.532 22.9804L137.036 14.5202L133.419 22.9804C133.173 23.57 132.754 23.8777 132.164 23.8777H129.186C128.768 23.8777 128.571 23.7495 128.571 23.4675C128.571 23.3137 128.621 23.1342 128.694 22.9548L137.676 1.95808C137.922 1.36843 138.34 1.08643 138.931 1.08643H141.465C142.179 1.08643 142.745 1.36843 143.139 1.95808L152.12 16.1097L174.242 1.95808C175.177 1.36843 176.063 1.08643 176.875 1.08643H179.434C179.828 1.08643 180 1.24025 180 1.52225C180 1.59916 180 1.65044 179.975 1.72735C179.975 1.80426 179.926 1.88117 179.901 1.95808L170.895 22.9548C170.649 23.5444 170.231 23.852 169.69 23.852H159.059V23.9033Z" fill="black"/>
<path d="M158.994 54.3261H0L8.45325 31.8713H168.41L158.994 54.3261Z" fill="url(#paint0_linear_151_89)"/>
<path d="M68.6663 47.819C68.5312 47.819 68.4502 47.7635 68.4502 47.6804C68.4502 47.6249 68.4502 47.5695 68.4772 47.4864L71.8271 39.809C71.9352 39.5873 72.0703 39.5042 72.2864 39.5042H76.3658C76.5278 39.5042 76.5819 39.5596 76.5819 39.6704C76.5819 39.7259 76.5549 39.7813 76.5278 39.8367L73.2049 47.5141C73.0969 47.7358 72.9618 47.8467 72.7457 47.8467H68.6663V47.819Z" fill="white"/>
<path d="M87.3877 47.8195C87.1446 47.8195 86.9555 47.7917 86.7934 47.764C86.6313 47.7363 86.4422 47.6809 86.226 47.57L78.2565 43.8006L76.6625 47.4869C76.5545 47.7086 76.4194 47.8195 76.2033 47.8195H74.6634C74.5013 47.8195 74.4473 47.764 74.4473 47.6809C74.4473 47.6254 74.4743 47.57 74.5013 47.4869L77.8242 39.8095C77.9323 39.5878 78.0673 39.5046 78.2835 39.5046H79.6342C79.9044 39.5046 80.0935 39.5046 80.2556 39.5324C80.4177 39.5601 80.5798 39.6155 80.7959 39.7264L88.1711 43.3572L89.711 39.8095C89.8191 39.5878 89.9542 39.5046 90.1703 39.5046H91.7102C91.8723 39.5046 91.9263 39.5601 91.9263 39.6709C91.9263 39.7264 91.8993 39.7818 91.8723 39.8372L88.5494 47.5146C88.4413 47.7363 88.3062 47.8472 88.0901 47.8472H87.3877V47.8195Z" fill="white"/>
<path d="M99.086 40.918C98.5727 40.918 98.1404 41.0566 97.8163 41.3338C97.4921 41.6109 97.1949 42.0821 96.9247 42.6919L94.8445 47.459C94.7365 47.6808 94.6014 47.7916 94.3853 47.7916H89.8196C89.6846 47.7916 89.6035 47.7362 89.6035 47.653C89.6035 47.6253 89.6035 47.5976 89.6035 47.5699C89.6035 47.5422 89.6305 47.5145 89.6305 47.459L91.6027 42.9136C91.8188 42.4147 92.089 41.9435 92.4131 41.5278C92.7373 41.1121 93.1155 40.7517 93.5208 40.4469C93.953 40.142 94.4123 39.8925 94.8986 39.7262C95.4119 39.56 95.9522 39.4768 96.5465 39.4768H105.165C105.327 39.4768 105.381 39.5322 105.381 39.6431C105.381 39.6985 105.381 39.754 105.354 39.8094L105.002 40.5854C104.894 40.8072 104.759 40.918 104.543 40.918H99.086ZM97.5191 43.9945C97.384 43.9945 97.303 43.9391 97.303 43.8559C97.303 43.8005 97.33 43.7451 97.357 43.6896L97.6812 42.8859C97.7892 42.6642 97.9243 42.581 98.1405 42.581H103.841C104.003 42.581 104.084 42.6087 104.084 42.6919C104.084 42.7196 104.084 42.7196 104.084 42.7473C104.084 42.775 104.084 42.775 104.084 42.8027L103.652 43.8005C103.598 43.9391 103.463 44.0222 103.246 44.0222H97.5191V43.9945Z" fill="white"/>
<path d="M106.461 47.8193C106.055 47.8193 105.677 47.7639 105.38 47.6253C105.056 47.4867 104.786 47.2927 104.597 47.071C104.408 46.8493 104.218 46.5444 104.11 46.2395C104.002 45.9069 103.948 45.5743 103.948 45.1863C103.948 44.7151 104.029 44.244 104.191 43.7728C104.353 43.3016 104.57 42.8582 104.84 42.4424C105.11 42.0267 105.461 41.6386 105.839 41.2783C106.218 40.918 106.65 40.6132 107.109 40.3637C107.568 40.1143 108.055 39.8925 108.541 39.754C109.054 39.6154 109.567 39.5322 110.108 39.5322H115.916C116.348 39.5322 116.7 39.5877 117.024 39.7262C117.348 39.8648 117.618 40.0311 117.834 40.2806C118.05 40.53 118.212 40.7794 118.321 41.112C118.429 41.4169 118.483 41.7772 118.483 42.1375C118.483 42.6087 118.402 43.0799 118.239 43.5511C118.077 44.0222 117.861 44.4657 117.564 44.8814C117.267 45.2972 116.943 45.6852 116.565 46.0455C116.186 46.4058 115.754 46.7107 115.295 46.9878C114.836 47.265 114.349 47.459 113.836 47.5976C113.323 47.7362 112.809 47.8193 112.296 47.8193H106.461ZM113.62 42.8304C113.89 42.2484 114.025 41.8327 114.025 41.5555C114.025 41.3061 113.944 41.1675 113.782 41.0566C113.62 40.9735 113.377 40.918 113.052 40.918H111.432C111.188 40.918 110.999 40.9457 110.783 41.0012C110.594 41.0566 110.405 41.1675 110.243 41.3061C110.081 41.4446 109.919 41.6386 109.757 41.8881C109.594 42.1375 109.432 42.4424 109.297 42.8027L108.73 44.1331C108.433 44.826 108.271 45.3526 108.271 45.6852C108.271 45.9346 108.325 46.1009 108.46 46.1841C108.595 46.2949 108.784 46.3227 109.054 46.3227H110.675C110.918 46.3227 111.134 46.2949 111.351 46.2118C111.567 46.1286 111.756 46.0178 111.945 45.8515C112.134 45.6852 112.323 45.4635 112.485 45.1586C112.647 44.8814 112.836 44.5211 113.025 44.1054L113.62 42.8304Z" fill="white"/>
<path d="M127.344 47.8193C127.02 47.8193 126.804 47.7084 126.696 47.4867L124.724 43.6342C124.697 43.6065 124.67 43.551 124.67 43.5233C124.643 43.4956 124.643 43.4402 124.643 43.4125C124.643 43.357 124.67 43.3016 124.724 43.1907L124.859 42.9136C124.967 42.6919 125.102 42.6087 125.318 42.6087H126.939C127.452 42.6087 127.857 42.4978 128.128 42.2761C128.398 42.0544 128.533 41.8049 128.533 41.5001C128.533 41.3338 128.452 41.1952 128.317 41.0843C128.182 40.9735 127.965 40.9457 127.668 40.9457H125.021L122.157 47.5144C122.049 47.7362 121.914 47.847 121.698 47.847H117.618C117.456 47.847 117.402 47.7916 117.402 47.7085C117.402 47.653 117.429 47.5976 117.456 47.5144L120.806 39.8371C120.914 39.6154 121.049 39.5322 121.266 39.5322H131.586C132.153 39.5322 132.585 39.6708 132.882 39.948C133.206 40.2251 133.369 40.5854 133.369 41.0289C133.369 41.4169 133.288 41.8049 133.098 42.1375C132.909 42.4701 132.666 42.775 132.342 43.0522C132.018 43.3293 131.64 43.5233 131.207 43.6896C130.775 43.8559 130.316 43.9668 129.83 44.0222L131.613 47.4867C131.64 47.5144 131.64 47.5699 131.64 47.5976C131.64 47.653 131.613 47.7362 131.559 47.7916C131.504 47.847 131.423 47.8747 131.315 47.8747H127.344V47.8193Z" fill="white"/>
<path d="M143.634 47.8195C143.472 47.8195 143.418 47.764 143.418 47.6809C143.418 47.6254 143.418 47.57 143.445 47.4869L144.796 44.4104L140.095 47.4869C139.933 47.5977 139.771 47.6809 139.609 47.7363C139.474 47.7917 139.338 47.8195 139.203 47.8195H138.501C138.393 47.8195 138.258 47.7917 138.15 47.7363C138.042 47.6809 137.934 47.5977 137.853 47.4869L135.448 44.4104L134.097 47.4869C133.989 47.7086 133.854 47.8195 133.638 47.8195H132.531C132.368 47.8195 132.314 47.764 132.314 47.6809C132.314 47.6254 132.341 47.57 132.368 47.4869L135.691 39.8095C135.799 39.5878 135.935 39.5046 136.151 39.5046H137.096C137.366 39.5046 137.582 39.6155 137.718 39.8095L141.04 44.9924L149.253 39.8095C149.604 39.5878 149.929 39.5046 150.226 39.5046H151.171C151.306 39.5046 151.387 39.5601 151.387 39.6709C151.387 39.6987 151.387 39.7264 151.387 39.7541C151.387 39.7818 151.36 39.8095 151.36 39.8372L148.01 47.5146C147.902 47.7363 147.767 47.8472 147.551 47.8472H143.634V47.8195Z" fill="white"/>
<defs>
<linearGradient id="paint0_linear_151_89" x1="167.387" y1="31.8713" x2="23.9034" y2="31.8713" gradientUnits="userSpaceOnUse">
<stop/>
<stop offset="0.537314" stop-opacity="0.26"/>
<stop offset="1" stop-opacity="0"/>
</linearGradient>
</defs>
</svg>
