<svg width="203" height="50" viewBox="0 0 203 50" fill="none" xmlns="http://www.w3.org/2000/svg">
<path d="M0.696901 26.3406C0.234277 26.3406 0 26.1864 0 25.8782C0 25.7241 0.0385518 25.5314 0.115656 25.3002L10.9725 1.01087C11.2809 0.341027 11.7702 0.00610352 12.4404 0.00610352H45.9777C47.8312 0.00610352 49.2042 0.37363 50.0939 1.10572C50.9835 1.84077 51.4254 2.85147 51.4254 4.13781C51.4254 5.34709 51.2 6.37854 50.7492 7.22622C50.2985 8.07687 49.7588 8.79117 49.1271 9.36914C48.4954 9.9471 47.84 10.4124 47.158 10.7592C46.4759 11.106 45.9036 11.3846 45.438 11.5891C45.9273 11.7966 46.3662 12.259 46.7517 12.9792C47.1372 13.6994 47.33 14.6005 47.33 15.6823C47.33 16.8412 47.0067 18.0505 46.3632 19.3131C45.7197 20.5757 44.7974 21.7257 43.5993 22.769C42.4013 23.8123 40.96 24.6689 39.2726 25.3388C37.5852 26.0086 35.6843 26.3435 33.5729 26.3435H0.696901V26.3406ZM23.3773 14.2537C22.9384 14.2537 22.719 14.0996 22.719 13.7913C22.719 13.6372 22.7575 13.4564 22.8346 13.2519L23.9556 10.7414C24.264 10.0716 24.7533 9.73666 25.4236 9.73666H31.6838C32.3273 9.73666 32.9471 9.62107 33.5373 9.38989C34.1304 9.1587 34.6434 8.86231 35.0823 8.50071C35.5212 8.13911 35.8741 7.74787 36.144 7.32403C36.4138 6.90019 36.5502 6.49413 36.5502 6.10882C36.5502 5.64645 36.3575 5.26707 35.972 4.97068C35.5864 4.67428 34.9281 4.52609 34.0029 4.52609H24.3055L16.6159 21.782H25.6578C27.022 21.782 28.1252 21.5627 28.9614 21.1241C29.7977 20.6884 30.4412 20.1726 30.895 19.5799C31.3457 18.9871 31.6423 18.3943 31.7846 17.8045C31.927 17.2117 31.9982 16.7493 31.9982 16.4144C31.9982 14.9739 31.0077 14.2507 29.0237 14.2507H23.3773V14.2537Z" fill="#333333"/>
<path d="M79.2866 26.3404C78.4889 26.3404 77.9343 26.0825 77.6259 25.5698L69.5893 10.0833L52.5493 21.7819H70.0905C70.5531 21.7819 70.7874 21.9479 70.7874 22.2828C70.7874 22.4636 70.737 22.6444 70.6332 22.8222L69.5507 25.2941C69.2423 25.9907 68.753 26.3374 68.0828 26.3374H42.3123C41.9772 26.3374 41.8111 26.1833 41.8111 25.8751C41.8111 25.6172 42.0157 25.3475 42.4279 25.0629L77.5102 0.735054C78.2309 0.246006 78.8892 0 79.4823 0H81.9941C82.3559 0 82.6436 0.0652068 82.863 0.192656C83.0825 0.320104 83.2545 0.500904 83.385 0.73209L96.4452 24.9829C96.4956 25.1874 96.5223 25.3445 96.5223 25.4453C96.5223 25.6765 96.4245 25.8839 96.2317 26.0618C96.0389 26.2426 95.7216 26.3315 95.2857 26.3315H79.2866V26.3404Z" fill="#333333"/>
<path d="M107.839 26.3404C104.541 26.3404 102.151 25.8069 100.671 24.7369C99.1913 23.6669 98.45 22.1672 98.45 20.2377C98.45 19.39 98.5834 18.4623 98.8562 17.4575C99.1261 16.4527 99.5205 15.3739 100.034 14.215L105.944 1.00773C106.252 0.337888 106.742 0.00296399 107.412 0.00296399H121.824C122.314 0.00296399 122.56 0.171908 122.56 0.503867C122.56 0.657991 122.509 0.826935 122.406 1.00773L116.534 14.215C116.172 15.0656 115.89 15.8481 115.686 16.5713C115.478 17.2915 115.377 17.9495 115.377 18.5393C115.377 19.5945 115.706 20.4007 116.362 20.952C117.017 21.5062 118.055 21.7819 119.473 21.7819H126.118C128.334 21.7819 130.252 21.112 131.877 19.7723C133.5 18.4356 134.852 16.5802 135.934 14.212L141.806 1.00477C142.115 0.334924 142.604 0 143.274 0H147.948C148.41 0 148.645 0.168944 148.645 0.500903C148.645 0.655027 148.606 0.823971 148.529 1.00477L142.619 14.212C141.871 15.9103 140.905 17.4931 139.721 18.9632C138.538 20.4303 137.159 21.7107 135.587 22.8044C134.016 23.8981 132.266 24.7606 130.332 25.3919C128.399 26.0233 126.314 26.3374 124.075 26.3374H107.839V26.3404Z" fill="#333333"/>
<path d="M177.772 26.3404C177.283 26.3404 177.037 26.1863 177.037 25.878C177.037 25.7239 177.075 25.5312 177.152 25.3L181.556 15.531L166.293 25.3C165.726 25.6616 165.204 25.9254 164.727 26.0914C164.249 26.2574 163.819 26.3404 163.431 26.3404H161.189C160.8 26.3404 160.421 26.2574 160.05 26.0914C159.676 25.9254 159.347 25.6587 159.066 25.3L151.228 15.528L146.862 25.2971C146.554 25.9936 146.05 26.3404 145.356 26.3404H141.762C141.272 26.3404 141.029 26.1863 141.029 25.878C141.029 25.6972 141.08 25.5046 141.183 25.3L152.002 1.01069C152.31 0.340844 152.814 0.00592041 153.508 0.00592041H156.56C157.434 0.00592041 158.105 0.340844 158.567 1.01069L169.386 17.3834L196.046 1.01069C197.179 0.340844 198.234 0.00592041 199.213 0.00592041H202.303C202.766 0.00592041 203 0.174864 203 0.506824C203 0.583886 202.994 0.660948 202.979 0.73801C202.964 0.815072 202.935 0.906953 202.881 1.00773L192.025 25.2971C191.716 25.9936 191.227 26.3404 190.557 26.3404H177.772V26.3404Z" fill="#333333"/>
<path d="M140.884 38.2464C140.706 38.1515 140.442 38.1041 140.095 38.1041H138.322C138.069 38.1041 137.835 38.1367 137.625 38.2019C137.411 38.2671 137.212 38.3768 137.032 38.5339C136.848 38.691 136.673 38.8985 136.504 39.1593C136.335 39.4201 136.163 39.7461 135.988 40.1374L135.362 41.5601C135.03 42.2981 134.867 42.8553 134.867 43.2287C134.867 43.4807 134.941 43.6615 135.089 43.7711C135.237 43.8808 135.451 43.9342 135.73 43.9342H137.518C137.788 43.9342 138.034 43.8927 138.262 43.8097C138.488 43.7267 138.707 43.5933 138.915 43.4125C139.122 43.2317 139.324 42.9857 139.514 42.6834C139.706 42.3781 139.899 42.0046 140.101 41.563L140.727 40.1403C141.014 39.5327 141.157 39.0763 141.157 38.771C141.154 38.5161 141.062 38.3442 140.884 38.2464Z" fill="#333333"/>
<path d="M89.7312 31.6755L83.7556 49.459H183.84L189.815 31.6755H89.7312ZM95.8609 45.4725H91.3593C91.2021 45.4725 91.125 45.4192 91.125 45.3154C91.125 45.2621 91.1368 45.1969 91.1635 45.1198L94.8289 36.9157C94.9327 36.6904 95.0988 36.5778 95.3242 36.5778H99.814C99.9801 36.5778 100.063 36.6341 100.063 36.7467C100.063 36.8001 100.045 36.8564 100.01 36.9157L96.3562 45.1198C96.2524 45.354 96.0893 45.4725 95.8609 45.4725ZM112.693 45.4725H111.91C111.649 45.4725 111.427 45.4577 111.246 45.4281C111.062 45.3984 110.855 45.3273 110.62 45.2117L101.878 41.1689L100.128 45.1198C100.025 45.354 99.8585 45.4725 99.6331 45.4725H97.9487C97.7826 45.4725 97.6996 45.4192 97.6996 45.3154C97.6996 45.2562 97.7174 45.191 97.753 45.1198L101.407 36.9157C101.51 36.6904 101.679 36.5778 101.917 36.5778H103.405C103.693 36.5778 103.921 36.5897 104.09 36.6163C104.259 36.643 104.458 36.7112 104.683 36.8238L112.785 40.7006L114.482 36.9187C114.585 36.6934 114.751 36.5808 114.977 36.5808H116.661C116.827 36.5808 116.91 36.6371 116.91 36.7497C116.91 36.8031 116.893 36.8594 116.857 36.9187L113.203 45.1228C113.1 45.354 112.928 45.4725 112.693 45.4725ZM120.119 45.1198C120.015 45.354 119.846 45.4725 119.609 45.4725H114.612C114.455 45.4725 114.378 45.4192 114.378 45.3154C114.378 45.2799 114.381 45.2502 114.384 45.2236C114.387 45.1969 114.399 45.1613 114.416 45.1198L116.596 40.256C116.83 39.7166 117.127 39.2246 117.483 38.777C117.839 38.3295 118.248 37.9412 118.71 37.6152C119.17 37.2891 119.68 37.0342 120.238 36.8534C120.795 36.6697 121.4 36.5808 122.053 36.5808H131.525C131.691 36.5808 131.774 36.6371 131.774 36.7497C131.774 36.8031 131.762 36.8594 131.735 36.9187L131.355 37.7545C131.252 37.9886 131.083 38.1072 130.845 38.1072H124.778C124.203 38.1072 123.737 38.2583 123.381 38.5636C123.025 38.8689 122.693 39.355 122.391 40.0248L120.119 45.1198ZM129.303 41.3912H123.052C122.895 41.3912 122.818 41.3379 122.818 41.2341C122.818 41.1719 122.835 41.1126 122.871 41.0504L123.236 40.2027C123.34 39.9774 123.509 39.8648 123.746 39.8648H129.997C130.172 39.8648 130.258 39.9093 130.258 39.9952C130.258 40.013 130.255 40.0308 130.252 40.0486C130.246 40.0663 130.246 40.0841 130.246 40.1019L129.763 41.1571C129.692 41.3112 129.541 41.3912 129.303 41.3912ZM143.932 43.5608C143.505 43.9491 143.04 44.284 142.536 44.5656C142.031 44.8471 141.501 45.0694 140.943 45.2295C140.386 45.3895 139.825 45.4696 139.259 45.4696H132.865C132.411 45.4696 132.011 45.3984 131.664 45.2532C131.317 45.1109 131.023 44.9124 130.789 44.6604C130.555 44.4085 130.377 44.1091 130.255 43.7683C130.134 43.4245 130.071 43.054 130.071 42.6538C130.071 42.1411 130.157 41.6372 130.332 41.1422C130.507 40.6473 130.748 40.173 131.056 39.7196C131.364 39.269 131.729 38.8511 132.153 38.4688C132.574 38.0864 133.037 37.7545 133.535 37.4788C134.036 37.2002 134.564 36.9809 135.122 36.8208C135.679 36.6608 136.249 36.5808 136.83 36.5808H143.224C143.683 36.5808 144.092 36.6519 144.442 36.7882C144.795 36.9275 145.089 37.1202 145.323 37.3692C145.557 37.6181 145.735 37.9116 145.857 38.2495C145.979 38.5873 146.041 38.9578 146.041 39.358C146.041 39.8707 145.952 40.3776 145.774 40.8785C145.596 41.3794 145.35 41.8536 145.035 42.3071C144.727 42.7546 144.359 43.1755 143.932 43.5608ZM160.406 45.3747C160.341 45.4399 160.255 45.4725 160.151 45.4725H155.791C155.436 45.4725 155.195 45.354 155.074 45.1198L152.894 40.9852C152.867 40.9407 152.847 40.9022 152.829 40.8666C152.811 40.831 152.802 40.7895 152.802 40.7362C152.802 40.6828 152.829 40.6058 152.879 40.502L153.022 40.2027C153.125 39.9774 153.292 39.8648 153.517 39.8648H155.29C155.866 39.8648 156.296 39.7462 156.583 39.5121C156.871 39.2779 157.013 39.0023 157.013 38.6911C157.013 38.5073 156.936 38.365 156.785 38.2613C156.634 38.1576 156.396 38.1042 156.073 38.1042H153.164L150.032 45.1198C149.929 45.354 149.763 45.4725 149.537 45.4725H145.062C144.896 45.4725 144.813 45.4192 144.813 45.3154C144.813 45.2562 144.831 45.191 144.866 45.1198L148.532 36.9157C148.636 36.6904 148.802 36.5778 149.027 36.5778H160.433C161.04 36.5778 161.521 36.723 161.868 37.0135C162.215 37.304 162.39 37.6863 162.39 38.1546C162.39 38.5814 162.286 38.9756 162.084 39.3402C161.88 39.7047 161.601 40.0278 161.248 40.3064C160.895 40.585 160.483 40.8162 160.008 40.997C159.534 41.1808 159.033 41.3023 158.502 41.3616L160.471 45.0517C160.489 45.0872 160.498 45.1258 160.498 45.1702C160.504 45.2413 160.471 45.3095 160.406 45.3747ZM182.17 36.8268C182.164 36.8535 182.155 36.8831 182.137 36.9187L178.472 45.1228C178.368 45.3569 178.202 45.4755 177.977 45.4755H173.659C173.493 45.4755 173.41 45.4221 173.41 45.3184C173.41 45.2651 173.422 45.1999 173.448 45.1228L174.937 41.8239L169.783 45.1228C169.59 45.2443 169.415 45.3332 169.255 45.3895C169.095 45.4459 168.95 45.4755 168.819 45.4755H168.063C167.932 45.4755 167.805 45.4488 167.677 45.3895C167.55 45.3332 167.44 45.2443 167.345 45.1228L164.697 41.8239L163.223 45.1228C163.119 45.3569 162.95 45.4755 162.713 45.4755H161.5C161.334 45.4755 161.251 45.4221 161.251 45.3184C161.251 45.2591 161.269 45.1939 161.304 45.1228L164.958 36.9187C165.062 36.6934 165.231 36.5808 165.468 36.5808H166.5C166.797 36.5808 167.022 36.6934 167.179 36.9187L170.833 42.4493L179.836 36.9187C180.219 36.6934 180.574 36.5808 180.907 36.5808H181.95C182.108 36.5808 182.185 36.6371 182.185 36.7497C182.176 36.7734 182.173 36.8001 182.17 36.8268Z" fill="#333333"/>
</svg>
