<svg width="35" height="33" viewBox="0 0 35 33" fill="none" xmlns="http://www.w3.org/2000/svg">
<path fill-rule="evenodd" clip-rule="evenodd" d="M16.3654 0.848013C17.0127 0.272668 17.988 0.272668 18.6353 0.848013L34.0103 14.5147C34.7155 15.1415 34.779 16.2213 34.1522 16.9265C33.5254 17.6316 32.4456 17.6951 31.7404 17.0683L31.167 16.5587V29.4582C31.167 31.3451 29.6373 32.8748 27.7503 32.8748H7.25034C5.36337 32.8748 3.83368 31.3451 3.83368 29.4582V16.5587L3.2603 17.0683C2.55513 17.6951 1.47534 17.6316 0.84852 16.9265C0.221701 16.2213 0.285218 15.1415 0.990389 14.5147L16.3654 0.848013ZM7.25034 13.5216V29.4582H12.3753V20.9165C12.3753 19.973 13.1402 19.2082 14.0837 19.2082H20.917C21.8605 19.2082 22.6253 19.973 22.6253 20.9165V29.4582H27.7503V13.5216L17.5003 4.41051L7.25034 13.5216ZM19.2087 29.4582V22.6248H15.792V29.4582H19.2087Z" fill="white"/>
</svg>
