<svg width="31" height="31" viewBox="0 0 31 31" fill="none" xmlns="http://www.w3.org/2000/svg">
<path fill-rule="evenodd" clip-rule="evenodd" d="M3.74929 3C3.29134 6.16665 2.83997 14.7189 9.56042 21.4393C16.2809 28.1598 24.8331 27.7084 27.9998 27.2505V20.7707L21.3459 19.6617L20.3414 21.6708C20.0873 22.179 19.5679 22.5 18.9998 22.5V21C18.9998 22.5 18.999 22.5 18.9983 22.5H18.9967L18.9933 22.5L18.9858 22.4999L18.9673 22.4997C18.9534 22.4995 18.9366 22.4991 18.917 22.4985C18.8777 22.4972 18.8268 22.4949 18.7652 22.4908C18.6421 22.4826 18.4756 22.4671 18.272 22.438C17.8651 22.3799 17.3076 22.2671 16.6504 22.048C15.3309 21.6082 13.6223 20.7439 11.9391 19.0607C10.2559 17.3774 9.39159 15.6689 8.95173 14.3493C8.73268 13.6922 8.61984 13.1347 8.56171 12.7278C8.53262 12.5242 8.51715 12.3577 8.50894 12.2345C8.50483 12.1729 8.50254 12.1221 8.50127 12.0828C8.50064 12.0631 8.50026 12.0463 8.50004 12.0325L8.49982 12.014L8.49977 12.0064L8.49976 12.0031L8.49976 12.0015C8.49976 12.0007 8.49976 12 9.99976 12H8.49976C8.49976 11.4985 8.75041 11.0301 9.16771 10.7519L12.655 8.42704L10.4842 3H3.74929ZM11.6102 12.7291L14.3191 10.9232C15.4995 10.1363 15.9673 8.63006 15.4405 7.31287L13.2696 1.88583C12.814 0.746853 11.7109 0 10.4842 0H3.67092C2.30816 0 1.02539 0.946743 0.801673 2.42535C0.292708 5.78925 -0.400063 15.7215 7.4391 23.5607C15.2783 31.3998 25.2105 30.707 28.5744 30.1981C30.053 29.9744 30.9998 28.6916 30.9998 27.3288V20.7707C30.9998 19.3042 29.9395 18.0526 28.493 17.8115L21.8391 16.7025C20.54 16.486 19.2517 17.1421 18.6627 18.3201L18.1429 19.3596C17.9796 19.3195 17.7972 19.268 17.5991 19.202C16.6687 18.8918 15.3772 18.2561 14.0604 16.9393C12.7437 15.6226 12.1079 14.3311 11.7978 13.4007C11.714 13.1492 11.6536 12.9232 11.6102 12.7291Z" fill="white"/>
</svg>
